<?xml version="1.0" standalone="no"?>
<!DOCTYPE svg PUBLIC "-//W3C//DTD SVG 20010904//EN"
 "http://www.w3.org/TR/2001/REC-SVG-20010904/DTD/svg10.dtd">
<svg version="1.0" xmlns="http://www.w3.org/2000/svg"
 width="1920.000000pt" height="1920.000000pt" viewBox="0 0 1920.000000 1920.000000"
 preserveAspectRatio="xMidYMid meet">
<metadata>
Created by potrace 1.11, written by Peter Selinger 2001-2013
</metadata>
<g transform="translate(0.000000,1920.000000) scale(0.100000,-0.100000)"
fill="#000000" stroke="none">
<path d="M749 18420 c-1 -5 -2 -13 -3 -17 -2 -5 -6 -30 -11 -58 -5 -27 -10
-52 -10 -55 -1 -3 -5 -30 -9 -60 -5 -30 -10 -64 -12 -75 -3 -11 -6 -38 -9 -60
-4 -36 -9 -75 -20 -155 -2 -14 -6 -59 -10 -100 -4 -41 -8 -88 -10 -105 -27
-209 -26 -1053 0 -1239 2 -17 7 -58 10 -91 22 -235 64 -507 116 -750 16 -77
32 -151 35 -165 3 -14 7 -33 10 -42 3 -9 7 -25 9 -35 30 -129 89 -337 151
-528 246 -751 621 -1471 1094 -2100 58 -77 113 -149 122 -160 9 -11 45 -54 78
-95 95 -115 143 -171 170 -199 14 -15 59 -64 102 -111 187 -208 489 -491 743
-697 72 -58 128 -111 127 -117 -2 -6 -6 -22 -8 -35 -3 -13 -18 -72 -33 -130
-28 -105 -55 -224 -66 -291 -3 -19 -10 -51 -15 -70 -5 -20 -21 -107 -34 -195
-25 -165 -31 -207 -41 -310 -3 -33 -8 -73 -10 -90 -27 -204 -27 -911 0 -1145
2 -19 7 -64 10 -100 5 -58 24 -202 40 -315 14 -95 79 -419 106 -530 17 -66 32
-127 34 -135 44 -196 220 -697 315 -904 17 -36 30 -67 30 -70 0 -9 186 -384
236 -476 235 -431 597 -937 918 -1285 47 -50 63 -78 102 -180 128 -329 289
-671 446 -945 14 -25 38 -66 53 -93 15 -26 28 -47 30 -47 2 0 -6 28 -17 63
-47 147 -95 335 -153 590 -41 187 -42 199 -17 171 80 -84 446 -378 637 -509
39 -27 90 -63 115 -80 55 -38 273 -176 321 -203 19 -10 75 -42 124 -71 159
-92 439 -230 650 -320 11 -5 37 -17 58 -26 59 -26 322 -124 417 -155 256 -85
520 -155 761 -203 l159 -32 -36 -40 c-20 -22 -53 -58 -73 -80 -99 -108 -315
-368 -337 -406 -5 -9 -21 -32 -36 -50 -63 -80 -105 -140 -197 -279 -93 -140
-171 -265 -171 -276 0 -3 28 32 63 78 34 46 72 94 84 108 12 14 51 61 88 105
198 236 505 543 745 743 81 69 76 67 200 48 36 -6 138 -18 185 -21 74 -6 189
-15 270 -21 107 -8 567 -8 680 0 50 4 124 9 165 12 64 4 170 16 370 40 25 3
56 7 70 10 14 2 41 7 60 10 19 2 73 12 120 20 47 9 96 18 110 20 22 4 257 58
303 70 9 2 26 6 38 9 11 2 29 7 39 10 10 3 27 7 37 9 49 10 459 142 537 173
32 13 60 22 63 19 4 -4 -14 -204 -23 -251 -2 -10 -6 -37 -9 -60 -6 -41 -20
-128 -30 -180 -3 -16 -8 -46 -11 -65 -3 -19 -8 -46 -10 -60 -10 -55 -46 -219
-65 -295 -12 -44 -22 -88 -24 -98 -30 -148 -204 -664 -286 -844 -10 -23 -19
-44 -19 -47 0 -9 -163 -360 -189 -406 -4 -8 -23 -42 -41 -75 -67 -122 -164
-291 -195 -340 -18 -27 -58 -90 -89 -139 -31 -48 -56 -90 -54 -92 6 -5 357
352 455 462 555 627 1004 1406 1260 2189 66 202 81 255 109 395 66 334 52 302
163 367 98 57 382 240 391 252 3 3 32 24 65 46 119 80 415 317 575 460 79 71
413 407 488 491 335 378 658 843 881 1270 l53 100 136 82 c172 104 153 92 301
191 170 114 521 376 561 421 3 3 23 20 45 39 395 333 813 806 1128 1272 189
282 394 649 519 933 22 50 48 109 58 131 101 226 294 821 326 1005 3 14 9 39
14 55 9 30 26 114 35 171 3 16 8 39 10 52 9 39 34 185 40 237 4 28 8 57 10 65
2 8 7 42 10 75 4 33 8 74 11 90 l4 30 -21 -25 c-11 -14 -27 -33 -35 -43 -7 -9
-14 -21 -14 -26 0 -5 -3 -11 -8 -13 -4 -2 -40 -46 -79 -98 -261 -344 -599
-699 -943 -990 -36 -30 -67 -57 -70 -60 -15 -16 -200 -158 -295 -227 -193
-140 -437 -296 -625 -402 -117 -66 -430 -221 -431 -214 -1 5 -2 91 -4 193 -2
166 -11 384 -19 465 -2 17 -6 65 -10 107 -4 43 -9 90 -11 105 -39 303 -66 461
-111 658 -14 61 -28 119 -30 130 -10 54 -91 336 -131 460 -241 736 -607 1412
-1087 2009 -17 22 -35 44 -41 50 -5 6 -46 54 -90 106 -218 258 -535 568 -820
801 -387 317 -795 576 -1285 815 -96 47 -176 87 -178 88 -1 2 7 43 19 92 11
49 23 103 25 119 2 17 7 44 9 60 19 108 25 388 11 525 -6 54 -46 269 -60 320
-45 160 -120 343 -199 481 -54 97 -141 227 -174 264 -10 11 -29 34 -41 50 -67
86 -356 355 -383 355 -4 0 8 -35 26 -78 168 -400 211 -837 123 -1252 -11 -52
-29 -124 -40 -160 l-20 -64 -23 26 c-42 49 -149 140 -224 190 -129 88 -257
145 -410 183 -117 29 -179 37 -295 39 l-90 1 -9 -30 c-12 -38 -15 -341 -4
-417 4 -31 17 -88 27 -127 11 -39 20 -74 20 -77 0 -6 -69 -1 -140 10 -53 8
-138 18 -200 22 -36 3 -83 7 -105 9 -219 23 -791 24 -1015 1 -19 -2 -70 -7
-113 -11 -43 -4 -88 -8 -100 -10 -12 -2 -51 -6 -87 -10 -36 -4 -74 -9 -85 -11
-20 -3 -82 -12 -139 -19 -15 -3 -35 -6 -45 -9 -9 -3 -36 -8 -61 -11 -194 -27
-652 -139 -875 -214 -33 -11 -60 -19 -61 -18 -1 1 -14 38 -29 82 -142 408
-361 824 -619 1175 -71 97 -175 229 -208 265 -10 11 -44 49 -76 85 -63 71
-256 265 -318 320 -111 98 -200 172 -324 266 -123 93 -108 91 -181 26 -323
-288 -629 -661 -861 -1050 -76 -127 -258 -490 -258 -513 0 -8 -4 -19 -9 -25
-12 -13 -86 -207 -132 -348 -67 -201 -148 -536 -164 -671 -3 -22 -8 -52 -11
-67 -7 -33 -10 -58 -23 -184 -17 -160 -23 -277 -22 -486 0 -181 -1 -196 -17
-191 -9 4 -73 38 -142 77 -472 263 -920 581 -1310 931 -606 544 -1109 1177
-1511 1902 -65 118 -249 484 -249 497 0 3 -16 39 -35 81 -48 101 -164 396
-204 518 -31 92 -39 110 -42 87z m9256 -2534 c189 -15 222 -17 245 -21 14 -3
52 -7 85 -10 63 -6 126 -13 160 -20 11 -2 28 -4 37 -4 11 -1 31 -29 56 -78 40
-82 64 -125 72 -133 3 -3 17 -23 31 -45 48 -72 174 -207 267 -283 l27 -22 -42
-38 c-69 -62 -103 -150 -96 -247 4 -55 30 -119 60 -150 21 -22 88 -117 96
-137 4 -9 12 -5 27 12 88 105 173 164 281 196 50 15 171 20 218 10 45 -10 96
-29 110 -40 8 -6 16 -9 18 -7 7 7 153 -13 251 -35 91 -20 270 -72 281 -81 2
-1 -6 -40 -17 -85 -25 -97 -40 -164 -48 -216 -3 -20 -7 -48 -9 -61 -9 -53 -18
-191 -18 -281 0 -315 72 -622 215 -918 28 -57 52 -101 55 -99 2 3 0 14 -6 25
-34 64 -110 326 -126 437 -4 22 -8 47 -10 55 -18 68 -25 350 -12 495 16 189
88 485 126 519 19 17 66 23 101 12 38 -12 195 -112 289 -184 224 -171 412
-386 542 -619 28 -51 53 -93 54 -93 2 0 -5 28 -14 63 -81 282 -198 517 -366
732 -66 85 -127 149 -294 309 -127 122 -271 302 -330 413 -11 21 -10 22 16 10
225 -101 687 -383 948 -580 135 -101 198 -150 205 -157 3 -3 32 -28 65 -55
268 -222 643 -594 786 -780 13 -16 29 -36 36 -43 28 -29 186 -236 270 -352
443 -619 778 -1331 969 -2059 25 -96 48 -184 50 -195 7 -34 12 -57 28 -133 39
-179 87 -502 101 -673 4 -47 9 -93 11 -102 14 -77 25 -664 14 -768 l-5 -52
-110 -44 c-255 -103 -727 -248 -940 -290 -11 -2 -55 -11 -98 -20 -43 -8 -81
-14 -83 -11 -3 3 9 47 26 98 37 110 106 374 115 439 3 25 8 53 11 63 3 10 8
32 10 50 3 18 6 41 8 52 2 11 7 47 11 80 4 33 9 69 11 80 18 97 26 630 11 780
-22 231 -67 485 -118 675 -29 109 -107 344 -141 425 -16 39 -30 75 -32 80 -16
57 -160 344 -246 488 l-63 106 -91 -34 c-461 -168 -847 -390 -1216 -699 -123
-103 -355 -335 -456 -456 -43 -52 -81 -97 -84 -100 -14 -13 -173 -235 -223
-311 -118 -181 -244 -425 -336 -647 -40 -97 -82 -210 -86 -232 -1 -3 -15 -50
-32 -105 -28 -87 -58 -195 -68 -245 -24 -111 -55 -276 -60 -315 -3 -27 -8 -59
-10 -70 -2 -11 -4 -26 -4 -33 -1 -9 -6 -10 -18 -3 -10 5 -21 9 -26 10 -4 0
-41 10 -82 22 l-75 22 24 41 c189 324 321 630 415 964 35 125 90 373 106 477
12 78 24 181 30 255 4 41 8 89 10 105 5 39 6 491 1 530 -2 17 -7 68 -11 115
-4 47 -9 93 -10 102 -2 9 -6 43 -10 74 -3 32 -8 60 -9 63 -2 3 -7 29 -10 56
-4 28 -9 57 -11 65 -2 8 -7 29 -10 45 -3 17 -7 42 -10 56 -14 77 -73 284 -120
424 -144 430 -360 825 -650 1190 -103 129 -143 173 -300 331 -213 215 -366
342 -595 496 -116 78 -161 106 -265 165 -64 37 -357 184 -395 198 -19 8 -69
28 -110 45 -179 75 -571 193 -715 214 -23 4 -51 9 -63 11 -12 3 -32 7 -44 10
-13 3 -68 11 -123 19 -94 14 -123 17 -270 32 -33 4 -177 7 -319 8 l-259 2 -19
80 c-11 43 -21 84 -22 89 -1 6 -8 27 -15 48 -7 21 -11 40 -9 42 9 9 335 112
489 155 215 59 507 122 674 145 23 3 50 7 60 9 28 5 112 16 160 20 46 5 156
16 200 22 17 1 91 6 165 10 74 4 136 8 138 9 5 4 517 -4 587 -9z m-1785 -710
c30 -3 82 -8 115 -11 33 -3 67 -7 75 -10 8 -2 33 -6 55 -9 198 -22 654 -143
826 -219 19 -8 63 -27 99 -42 648 -276 1241 -769 1638 -1362 336 -503 544
-1047 632 -1653 38 -266 45 -694 15 -940 -3 -19 -7 -55 -10 -80 -34 -270 -131
-647 -236 -910 -83 -209 -212 -460 -326 -637 -42 -66 -57 -83 -75 -81 -68 4
-238 -35 -333 -77 -89 -39 -212 -125 -283 -197 -99 -100 -145 -173 -181 -290
-40 -127 -122 -297 -195 -403 -45 -66 -52 -81 -39 -86 44 -15 -483 -304 -742
-406 -317 -124 -672 -218 -945 -249 -25 -3 -55 -7 -68 -9 -13 -2 -51 -7 -86
-10 l-64 -7 -73 89 c-189 226 -476 524 -671 698 -56 50 -108 97 -117 105 -55
54 -344 285 -487 390 -187 137 -519 350 -719 460 -33 18 -75 42 -92 52 l-33
20 93 181 c51 100 130 245 175 323 l81 140 92 -23 c79 -20 147 -34 234 -47
180 -28 512 -28 695 0 416 64 826 246 1160 513 196 157 404 390 545 610 89
140 222 426 260 561 8 25 22 77 33 115 19 63 53 234 66 325 20 139 26 360 13
530 -9 125 -13 152 -43 300 -113 554 -430 1062 -900 1440 -169 136 -436 291
-647 375 -62 25 -67 29 -68 59 0 17 -2 40 -3 51 -13 97 -19 142 -32 220 -21
125 -23 136 -29 167 -7 31 3 36 85 40 77 5 452 0 510 -6z m-373 -652 c336
-161 646 -423 865 -734 205 -292 341 -627 402 -990 3 -19 8 -46 11 -59 25
-130 25 -523 0 -663 -3 -16 -7 -40 -10 -55 -21 -119 -31 -161 -61 -265 -158
-552 -532 -1043 -1027 -1351 -100 -62 -311 -168 -392 -197 -347 -123 -572
-164 -905 -164 -167 0 -384 16 -398 29 -5 5 191 292 290 427 88 118 273 350
320 401 14 15 29 39 32 52 8 30 75 173 114 241 121 209 329 426 542 565 137
89 303 165 460 210 274 80 605 85 878 14 28 -7 52 -11 52 -9 0 2 -9 26 -20 54
-53 134 -90 340 -95 522 -4 148 -7 165 -47 276 -85 237 -259 437 -488 564 -56
31 -193 84 -240 93 -19 3 -55 10 -80 15 -25 5 -113 6 -197 3 l-152 -6 -16 39
c-9 22 -17 48 -18 59 -1 20 11 141 18 173 1 10 6 60 10 112 4 52 9 111 11 130
6 63 5 454 -2 518 l-6 62 45 -19 c25 -11 72 -32 104 -47z m-4169 -3293 c37
-26 106 -74 155 -106 77 -52 87 -61 88 -89 0 -17 2 -38 3 -46 2 -8 7 -41 10
-74 4 -32 9 -68 11 -80 2 -11 6 -39 10 -61 66 -444 268 -994 524 -1429 38 -65
69 -126 69 -135 0 -9 3 -74 8 -146 10 -152 11 -707 1 -845 -12 -177 -19 -255
-27 -315 -4 -33 -6 -166 -4 -295 4 -255 10 -376 29 -565 2 -22 7 -67 10 -100
3 -33 8 -71 10 -85 8 -54 15 -107 20 -150 23 -179 97 -545 151 -750 14 -52 27
-105 30 -118 6 -28 117 -391 138 -451 9 -24 16 -45 16 -47 0 -5 -73 76 -140
156 -25 29 -50 58 -55 64 -78 86 -277 357 -398 542 -394 602 -671 1254 -841
1984 -33 140 -75 366 -91 480 -3 25 -8 52 -10 60 -2 8 -6 46 -10 83 -3 37 -8
77 -10 88 -4 20 -12 105 -20 219 -28 368 -19 889 20 1160 2 14 7 50 10 80 3
30 13 100 22 155 8 55 16 109 18 120 9 68 29 175 52 275 14 63 32 144 39 180
26 115 77 290 86 290 5 0 39 -22 76 -49z m454 -296 c71 -43 76 -48 91 -98 8
-28 25 -83 37 -122 12 -38 28 -92 35 -120 7 -27 23 -86 35 -130 26 -95 19 -67
69 -290 22 -99 43 -197 47 -219 3 -21 8 -48 10 -60 2 -11 7 -37 10 -56 2 -19
9 -57 14 -85 5 -27 12 -68 14 -90 3 -22 10 -76 16 -120 5 -44 12 -105 16 -135
3 -30 8 -62 10 -70 22 -66 -136 232 -190 360 -97 228 -189 522 -232 745 -4 22
-8 42 -9 45 -1 3 -5 28 -9 55 -4 28 -10 61 -12 75 -2 14 -7 48 -10 75 -3 28
-7 61 -10 75 -8 47 -17 210 -12 210 3 0 39 -20 80 -45z m1905 -2346 c108 -57
181 -97 318 -174 154 -86 515 -324 660 -434 184 -140 246 -189 454 -366 13
-11 47 -41 75 -67 28 -26 54 -48 59 -48 4 0 7 -5 7 -11 0 -10 -120 -7 -220 6
-19 2 -60 7 -90 10 -30 4 -68 8 -85 11 -16 3 -43 7 -60 10 -16 2 -41 6 -55 9
-14 3 -41 7 -60 10 -19 3 -109 24 -200 47 -346 85 -679 221 -980 398 -113 67
-254 160 -258 172 -2 4 -9 8 -15 8 -7 0 -29 15 -50 33 l-38 32 21 80 c46 167
134 270 271 315 95 30 116 27 246 -41z m-525 -407 c11 -27 352 -259 503 -342
244 -134 451 -227 687 -308 126 -44 295 -94 356 -107 9 -2 49 -10 87 -19 92
-20 276 -53 345 -61 30 -4 66 -8 80 -10 14 -2 68 -6 120 -10 l95 -6 110 -112
c167 -170 318 -341 464 -525 14 -18 41 -52 60 -75 60 -75 206 -279 307 -432
131 -195 210 -328 343 -567 86 -156 211 -418 291 -608 29 -69 58 -138 65 -155
7 -16 23 -58 35 -93 25 -68 36 -79 19 -18 -6 21 -12 46 -14 55 -1 9 -9 36 -16
61 -7 25 -13 47 -14 50 -1 3 -7 25 -14 50 -57 206 -218 655 -295 822 -14 31
-26 59 -26 62 0 18 -234 492 -290 585 -16 29 -30 54 -30 56 0 3 -18 34 -40 70
-22 36 -40 67 -40 70 0 8 -247 396 -259 405 -3 3 -20 25 -36 50 -17 25 -63 89
-103 144 -39 55 -71 100 -70 102 2 1 41 5 88 9 228 17 512 70 775 145 377 107
803 315 1144 559 l123 88 57 -17 c267 -83 538 -275 716 -505 51 -65 142 -210
167 -265 79 -173 125 -338 142 -513 4 -38 59 -186 117 -312 5 -11 16 -40 25
-65 9 -25 38 -107 65 -184 63 -178 149 -477 189 -656 37 -165 83 -413 85 -454
0 -5 -7 -10 -15 -12 -8 -2 -26 -6 -40 -9 -14 -3 -36 -8 -50 -11 -205 -42 -492
-125 -805 -234 -326 -114 -816 -351 -1139 -552 -84 -52 -330 -214 -356 -235
-8 -6 -73 -55 -145 -109 -211 -158 -409 -328 -586 -502 -87 -85 -99 -94 -125
-88 -16 3 -51 8 -79 11 -27 3 -61 8 -75 11 -14 2 -38 7 -55 10 -16 3 -66 12
-110 20 -44 8 -93 17 -110 20 -59 11 -322 74 -425 103 -397 110 -735 240
-1105 426 -167 84 -269 141 -580 328 -11 7 -22 14 -25 17 -3 3 -32 23 -65 45
-180 120 -397 286 -585 448 -109 94 -132 118 -136 142 -11 62 -45 290 -49 325
-3 25 -7 61 -10 80 -14 110 -26 257 -40 475 -5 63 -5 644 -1 705 16 234 17
247 31 380 3 25 7 69 10 97 2 29 7 65 9 80 3 16 7 50 10 76 24 208 159 848
205 970 10 26 26 35 33 19z m9367 -1854 c-156 -251 -396 -580 -545 -748 -12
-14 -59 -68 -105 -120 -101 -114 -395 -410 -498 -500 -41 -36 -79 -70 -85 -75
-128 -119 -567 -446 -723 -538 -15 -9 86 290 142 418 7 17 37 86 65 155 49
115 220 468 267 550 11 19 46 80 78 135 49 86 173 282 256 406 23 35 29 38
198 84 309 83 659 208 926 329 55 25 101 43 103 41 3 -2 -33 -64 -79 -137z
m-3032 -1780 c99 -67 158 -183 154 -303 -1 -16 -3 -93 -5 -170 -2 -77 -4 -159
-5 -182 l-1 -41 -167 -66 c-194 -75 -419 -151 -617 -207 -146 -41 -495 -121
-606 -139 -36 -5 -75 -12 -87 -14 -11 -3 -43 -8 -70 -12 -26 -3 -56 -8 -67
-10 -10 -2 -44 -6 -75 -9 -31 -4 -67 -8 -81 -11 -14 -2 -52 -6 -86 -10 -34 -3
-81 -7 -105 -10 -146 -14 -298 -19 -559 -19 -260 1 -518 10 -528 20 -2 1 45
38 105 81 59 43 110 81 113 84 3 3 12 10 21 15 9 6 69 45 132 87 365 244 765
452 1181 615 125 49 377 139 416 148 8 2 78 22 155 44 137 40 442 114 519 125
21 4 41 8 45 10 3 2 28 7 56 11 27 3 51 8 53 10 7 7 68 -19 109 -47z"/>
</g>
</svg>
