<?xml version="1.0" standalone="no"?>
<!DOCTYPE svg PUBLIC "-//W3C//DTD SVG 20010904//EN"
 "http://www.w3.org/TR/2001/REC-SVG-20010904/DTD/svg10.dtd">
<svg version="1.0" xmlns="http://www.w3.org/2000/svg"
 width="501.000000pt" height="501.000000pt" viewBox="0 0 501.000000 501.000000"
 preserveAspectRatio="xMidYMid meet">
<metadata>
Created by potrace 1.11, written by Peter Selinger 2001-2013
</metadata>
<g transform="translate(0.000000,501.000000) scale(0.100000,-0.100000)"
fill="#000000" stroke="none">
<path d="M190 4785 c-1 -11 -4 -31 -6 -45 -26 -140 -25 -458 1 -560 2 -8 7
-35 10 -60 3 -25 13 -70 21 -100 8 -30 17 -65 20 -78 11 -52 77 -219 123 -313
116 -231 277 -437 479 -609 l52 -45 -14 -55 c-27 -103 -44 -254 -44 -385 0
-401 131 -763 392 -1083 40 -49 79 -110 93 -145 28 -69 114 -240 118 -235 2 2
-8 44 -21 93 -13 50 -24 94 -24 98 0 11 30 -7 60 -35 143 -136 470 -301 690
-348 102 -22 97 -14 42 -78 -27 -31 -75 -95 -107 -142 l-57 -85 53 60 c70 77
135 143 182 182 37 32 38 32 115 26 237 -21 475 5 671 72 41 14 75 24 77 22 1
-1 -1 -22 -6 -47 -4 -25 -11 -64 -14 -87 -21 -161 -109 -391 -216 -569 l-41
-69 73 75 c130 133 228 273 305 438 43 90 103 258 103 285 0 7 5 28 10 48 8
29 23 44 87 84 211 134 410 343 541 568 41 71 53 83 131 134 372 242 631 618
720 1043 26 129 29 150 21 150 -4 0 -28 -27 -54 -60 -131 -166 -315 -320 -512
-426 l-84 -46 -1 49 c-2 176 -26 328 -76 488 -131 418 -420 762 -823 979 -77
41 -85 48 -83 73 1 15 3 59 6 97 9 147 -48 297 -154 404 -34 35 -63 61 -65 60
-2 -2 6 -33 18 -68 23 -74 32 -194 17 -260 -16 -75 -17 -75 -45 -46 -44 44
-128 79 -192 80 l-57 1 -1 -60 c0 -33 3 -70 8 -83 8 -23 8 -23 -48 -16 -199
24 -524 -4 -685 -61 -23 -8 -43 -15 -44 -15 -1 0 -10 21 -20 48 -31 80 -91
194 -143 267 -55 78 -180 207 -243 250 l-40 28 -55 -54 c-208 -204 -343 -515
-345 -796 -1 -97 6 -94 -96 -33 -138 84 -231 158 -358 285 -179 178 -304 360
-395 575 -65 152 -69 158 -70 135z m2469 -649 c46 -3 85 -7 85 -8 1 -2 8 -16
16 -33 8 -16 33 -48 56 -72 36 -38 39 -44 25 -58 -20 -20 -19 -74 3 -107 l18
-28 29 24 c43 37 62 39 163 21 119 -22 121 -23 109 -71 -26 -102 -12 -245 33
-339 14 -27 22 -41 18 -30 -26 92 -34 140 -33 205 2 84 22 165 43 173 29 11
147 -85 207 -170 44 -62 45 -47 3 45 -27 60 -65 112 -134 180 -54 54 -96 112
-81 112 5 0 12 -4 15 -9 3 -4 29 -20 58 -35 130 -66 323 -225 433 -356 245
-293 377 -631 392 -1006 l6 -141 -69 -25 c-74 -28 -243 -72 -249 -66 -3 2 2
26 11 53 38 127 49 335 23 465 -17 91 -47 180 -92 272 -49 102 -50 103 -152
55 -218 -100 -393 -267 -492 -469 -21 -42 -39 -76 -40 -75 -1 1 5 29 13 62 25
107 33 243 20 355 -59 520 -503 913 -1038 921 -43 0 -78 2 -78 3 0 0 -4 16 -9
33 l-9 32 81 25 c93 27 118 33 173 42 21 3 57 9 80 13 22 4 73 9 114 10 41 1
76 4 78 6 2 1 22 1 45 -1 23 -2 80 -6 126 -8z m-469 -188 c36 -5 74 -11 85
-13 81 -13 231 -78 325 -140 61 -41 193 -161 230 -210 195 -260 262 -588 179
-885 -21 -77 -43 -131 -86 -215 -34 -66 -44 -75 -84 -82 -80 -12 -148 -69
-179 -152 -37 -98 -66 -131 -166 -183 -93 -49 -239 -95 -334 -104 l-55 -6 -50
58 c-120 140 -344 322 -485 394 -14 7 -27 14 -29 16 -1 1 16 39 40 83 l43 81
50 -7 c106 -16 236 -9 314 16 124 40 237 118 310 213 129 168 169 379 112 588
-25 91 -105 219 -179 288 -36 32 -149 106 -188 121 -37 15 -40 21 -48 96 l-7
56 68 -1 c38 -1 98 -6 134 -12z m-80 -201 c124 -82 220 -219 254 -367 18 -78
18 -215 -1 -287 -45 -175 -166 -325 -325 -402 -48 -23 -115 -48 -150 -55 -77
-17 -220 -16 -225 1 -2 6 31 58 74 115 43 57 89 126 102 152 47 91 143 172
251 212 53 19 176 26 222 13 39 -11 41 -9 28 25 -5 15 -14 66 -20 113 -7 68
-16 95 -40 133 -51 80 -120 118 -219 121 l-59 2 4 128 c2 70 4 133 4 138 0 14
41 -4 100 -42z m-1131 -833 c33 -21 40 -32 46 -72 17 -120 52 -227 108 -342
l52 -105 -1 -145 c-1 -80 -3 -188 -4 -240 -2 -88 4 -192 16 -265 13 -76 44
-216 62 -272 11 -35 16 -60 11 -57 -18 11 -132 167 -176 242 -62 104 -126 249
-148 332 -3 8 -14 50 -25 93 -44 165 -61 431 -39 582 5 33 11 72 13 87 7 48
39 188 43 188 2 0 21 -11 42 -26z m119 -92 c23 -59 50 -172 66 -269 12 -74 16
-103 12 -103 -6 0 -52 102 -71 156 -19 55 -55 241 -48 248 10 10 32 -7 41 -32z
m1915 -362 c-9 -41 -16 -76 -17 -77 -1 -1 -12 0 -23 3 -21 6 -21 7 15 80 20
40 37 72 38 71 1 -1 -5 -36 -13 -77z m-1410 -237 c91 -48 211 -129 303 -204
41 -33 74 -62 74 -63 0 -3 -32 -1 -105 9 -108 14 -242 62 -354 127 -89 51 -93
55 -76 95 11 26 65 73 84 73 1 0 35 -17 74 -37z m-108 -133 c113 -76 250 -133
395 -164 8 -2 42 -7 75 -10 58 -6 62 -8 124 -74 129 -135 262 -337 336 -511
21 -50 40 -89 42 -87 2 2 -15 58 -37 124 -47 141 -134 320 -218 447 -33 50
-59 91 -58 92 1 1 24 5 51 8 161 21 279 65 427 157 l77 48 62 -33 c103 -54
186 -166 203 -275 3 -23 20 -77 37 -119 33 -83 89 -290 89 -328 0 -18 -7 -24
-37 -30 -71 -13 -246 -75 -341 -121 -157 -76 -298 -173 -418 -287 -45 -42 -39
-41 -159 -18 -266 52 -550 193 -726 361 -30 29 -38 45 -44 90 -31 218 -18 487
31 685 25 99 15 94 89 45z m2380 -437 c-47 -73 -160 -215 -222 -278 -97 -101
-283 -249 -283 -226 0 36 88 225 161 347 l48 81 63 17 c35 10 101 32 148 51
104 41 107 42 85 8z m-780 -478 c14 -13 25 -30 26 -37 0 -7 1 -39 2 -70 l2
-58 -50 -19 c-104 -40 -269 -84 -360 -96 -128 -17 -254 -23 -327 -16 l-57 6
77 52 c162 109 331 186 517 234 135 35 140 35 170 4z"/>
</g>
</svg>
